<?xml version="1.0" encoding="UTF-8"?>
<!DOCTYPE svg PUBLIC "-//W3C//DTD SVG 1.1//EN" "http://www.w3.org/Graphics/SVG/1.1/DTD/svg11.dtd">
<!-- Creator: CorelDRAW (Evaluation Version) -->
<svg xmlns="http://www.w3.org/2000/svg" xml:space="preserve" width="2.2746in" height="1.85574in" version="1.1" style="shape-rendering:geometricPrecision; text-rendering:geometricPrecision; image-rendering:optimizeQuality; fill-rule:evenodd; clip-rule:evenodd"
viewBox="0 0 410.91 335.24"
 xmlns:xlink="http://www.w3.org/1999/xlink"
 xmlns:xodm="http://www.corel.com/coreldraw/odm/2003">
 <defs>
  <style type="text/css">
   <![CDATA[
    .fil0 {fill:#0C0C10}
    .fil2 {fill:#0C0E12}
    .fil1 {fill:#F44800}
   ]]>
  </style>
 </defs>
 <g id="Layer_x0020_1">
  <metadata id="CorelCorpID_0Corel-Layer"/>
  <g id="_424015864">
   <path class="fil0" d="M155.73 184.26c2.83,-2.87 28.39,-35.43 28.93,-37.12l-146.32 -0.01 -38.34 69.83 24.23 37.19 209.62 -0.19c-3.23,-4.19 -31.87,-35.7 -34.16,-36.73l-156.79 -0.13 17.69 -32.69 95.14 -0.16z"/>
   <path class="fil0" d="M204.34 117.21c4.94,-5.81 28.81,-32.41 31.22,-36.09l-209.89 0.06c-2.3,2.2 -23.22,32.93 -24.57,36.03l203.24 -0.01z"/>
   <path class="fil1" d="M328.48 144.63c-9.08,-6.14 -60.01,-39.57 -66.63,-41.67l16.1 38.64 45.04 12.35 -63.68 -3.04c-2.6,1.69 -8.63,7.01 -10.82,9.31 -5.17,5.43 -7.13,4.39 -14.53,5.17 -5.33,0.56 -32.02,3.06 -34.85,4.45 2.41,1.2 29.37,4.11 34.32,4.67 2.79,0.32 5.77,0.68 8.54,1.07 4.44,0.61 15.16,11.69 16.79,12.29l63.73 -1.51 -44.37 11.3c-2.45,5.96 -14.07,33.88 -14.75,37.98l33.32 -20.55c10.59,-7.08 21.97,-13.49 32.52,-20.47 7.85,-5.19 9.26,-6.2 18.55,-8.54 9.81,-2.47 61.05,-14.94 63.15,-16.23 -3.26,-1.71 -56.65,-14.12 -64.98,-16.19 -8.79,-2.19 -10.2,-4.11 -17.45,-9.01z"/>
   <path class="fil2" d="M66.61 65.75c27.53,-30.42 71.42,-48.12 114.43,-44.15 20.6,1.9 42.41,8.99 59.51,20.08 9.08,5.88 25.79,18.82 32.26,27.32 2.46,3.23 5.93,8.18 8.78,11.11l25.48 -0.04c-1.46,-6.13 -17.35,-25.17 -21.81,-30.13 -7.1,-7.9 -18.49,-17.33 -28.11,-23.67 -22.24,-14.67 -49.18,-24.8 -76.75,-26.06 -48.37,-2.2 -89.21,12.34 -123.55,44.83 -3.37,3.19 -16.48,18.08 -17.38,20.81l27.15 -0.11z"/>
   <path class="fil0" d="M40.39 268.88c1.57,3.87 20.54,23.85 24.15,26.48 4.83,3.52 8.91,7.45 14.25,11.06 29.34,19.82 62.12,30.83 98.62,28.52 38.42,-2.43 79.02,-20.42 103.5,-48.95 5.21,-6.07 18.84,-21.83 21.31,-29.35l-25.45 0.02 -13.28 16.12c-1.84,1.52 -3.34,2.94 -4.81,4.82 -3.08,3.95 -16.46,13.95 -21.61,16.92 -18.51,10.7 -36.46,17.67 -58.48,19.02 -45.33,2.79 -80.16,-13.3 -110.2,-44.76l-28 0.09z"/>
  </g>
 </g>
</svg>
