<?xml version="1.0" encoding="UTF-8"?>
<!DOCTYPE svg PUBLIC "-//W3C//DTD SVG 1.1//EN" "http://www.w3.org/Graphics/SVG/1.1/DTD/svg11.dtd">
<!-- Creator: CorelDRAW (Evaluation Version) -->
<svg xmlns="http://www.w3.org/2000/svg" xml:space="preserve" width="3.36248in" height="2.56415in" version="1.1" style="shape-rendering:geometricPrecision; text-rendering:geometricPrecision; image-rendering:optimizeQuality; fill-rule:evenodd; clip-rule:evenodd"
viewBox="0 0 1014.81 773.87"
 xmlns:xlink="http://www.w3.org/1999/xlink"
 xmlns:xodm="http://www.corel.com/coreldraw/odm/2003">
 <defs>
  <style type="text/css">
   <![CDATA[
    .fil7 {fill:#050505}
    .fil4 {fill:#090909}
    .fil8 {fill:#09090E}
    .fil0 {fill:#0C0C10}
    .fil2 {fill:#0C0E12}
    .fil5 {fill:#0D0D0D}
    .fil6 {fill:#0E0E12}
    .fil3 {fill:#777879}
    .fil1 {fill:#F44800}
   ]]>
  </style>
 </defs>
 <g id="Layer_x0020_1">
  <metadata id="CorelCorpID_0Corel-Layer"/>
  <g id="_477249096">
   <path class="fil0" d="M478.96 307.84c4.73,-4.79 47.42,-59.19 48.33,-62.01l-244.46 -0.02 -64.05 116.67 40.48 62.13 350.21 -0.31c-5.39,-7 -53.24,-59.65 -57.07,-61.36l-261.94 -0.21 29.55 -54.61 158.95 -0.26z"/>
   <path class="fil0" d="M560.16 195.82c8.25,-9.71 48.14,-54.15 52.15,-60.29l-350.66 0.11c-3.85,3.68 -38.8,55.01 -41.04,60.2l339.55 -0.01z"/>
   <path class="fil1" d="M767.55 241.63c-15.17,-10.25 -100.25,-66.1 -111.32,-69.62l26.91 64.56 75.25 20.63 -106.39 -5.08c-4.35,2.82 -14.42,11.72 -18.08,15.56 -8.63,9.07 -11.92,7.33 -24.27,8.63 -8.91,0.94 -53.49,5.11 -58.23,7.43 4.02,2.01 49.08,6.86 57.34,7.8 4.66,0.53 9.64,1.14 14.27,1.78 7.42,1.03 25.32,19.53 28.05,20.53l106.48 -2.52 -74.12 18.87c-4.1,9.96 -23.5,56.6 -24.64,63.45l55.66 -34.34c17.68,-11.82 36.7,-22.54 54.33,-34.19 13.12,-8.67 15.48,-10.36 30.99,-14.26 16.39,-4.13 101.99,-24.97 105.5,-27.12 -5.45,-2.86 -94.64,-23.58 -108.55,-27.05 -14.69,-3.66 -17.04,-6.86 -29.16,-15.05z"/>
   <path class="fil2" d="M330.07 109.85c46,-50.82 119.32,-80.39 191.17,-73.75 34.41,3.18 70.85,15.02 99.42,33.54 15.16,9.83 43.08,31.44 53.9,45.64 4.11,5.39 9.9,13.67 14.66,18.56l42.57 -0.07c-2.43,-10.24 -28.99,-42.05 -36.44,-50.34 -11.87,-13.2 -30.9,-28.95 -46.97,-39.54 -37.16,-24.5 -82.17,-41.44 -128.22,-43.53 -80.8,-3.68 -149.03,20.62 -206.41,74.9 -5.63,5.32 -27.54,30.21 -29.03,34.77l45.35 -0.18z"/>
   <path class="fil0" d="M286.27 449.2c2.62,6.47 34.31,39.84 40.35,44.24 8.07,5.87 14.88,12.45 23.81,18.47 49.02,33.11 103.79,51.51 164.75,47.65 64.18,-4.05 132.02,-34.11 172.92,-81.77 8.7,-10.14 31.47,-36.46 35.6,-49.04l-42.52 0.04 -22.19 26.92c-3.07,2.55 -5.58,4.91 -8.03,8.05 -5.15,6.61 -27.5,23.3 -36.1,28.28 -30.93,17.88 -60.91,29.52 -97.7,31.78 -75.73,4.66 -133.93,-22.23 -184.1,-74.78l-46.78 0.16z"/>
  </g>
  <path class="fil0" d="M575.53 696.83c7.36,-6.18 27.33,-44.82 31.55,-47.08l-0.02 47.17 15.1 -0.04 0.05 -74.77 -15.84 0.33c-0.89,2.74 -33.14,54.52 -37.3,57.1 -1.46,-4.77 -31.78,-52.24 -36.1,-57.39l-15.29 0.32 0.1 74.46 15.01 -0.39 0.06 -46.93c8.88,7.53 21.53,37.18 30.61,47.28l12.07 -0.06z"/>
  <path class="fil0" d="M688.37 651.93c0.07,-6.04 -1.75,-13.56 5.46,-15.4 3.33,-0.85 16.21,-0.32 20.52,-0.34 13.08,-0.04 29.58,0.89 42.23,-0.22l-0.6 -13.58c-18.93,-1.23 -41.47,-0.29 -60.76,-0.23 -25.81,0.08 -22.15,18.18 -22.17,37.82 -0.02,20.54 -3.05,36.99 23.2,36.92 19.3,-0.05 40.89,0.94 60.14,-0.16l-0.21 -14.15c-14.43,-0.66 -52.87,1.96 -63.69,-0.79 -5.36,-3.86 -4.29,-9.12 -3.99,-15.69l61.11 -0.24 -0.4 -13.53 -60.83 -0.43z"/>
  <path class="fil0" d="M397.73 636.68c5.03,-1.46 46.43,-1.37 50,1.21 4.76,3.44 3.07,18.22 3.07,24.1 0,7.35 2.48,18.4 -6.1,20.23 -5.9,1.26 -48.43,1.19 -51.62,-1.78 -3.86,-3.59 -2.46,-19.03 -2.44,-24.49 0.04,-8.89 -2.48,-16.5 7.09,-19.28zm67.71 45.44c1.38,-6 0.51,-33.46 0.33,-41.3 -0.31,-13.64 -9.45,-18.52 -22,-18.6 -13.76,-0.09 -27.52,-0.03 -41.28,-0.02 -31.66,0.04 -27.95,12.81 -26.8,55.93 0.37,13.7 8.92,18.78 21.74,18.74 13.75,-0.05 27.52,0 41.27,0.01 12.84,0.01 23.38,-0.21 26.73,-14.76z"/>
  <path class="fil0" d="M260.45 651.82c-3.34,-4.15 -5.4,-11.89 0.32,-14.8 3.51,-1.78 56.61,-0.8 62.66,-0.73l-0.76 -14.09c-15.95,0.17 -31.98,-0.14 -47.95,-0.02 -13.17,0.1 -30.92,-2.29 -32.28,15.64 -1.28,16.9 1.03,28.03 20.19,28.2 10.27,0.09 37.59,-1.38 45.62,1.56 1.49,5.25 1.36,6.33 0.62,11.78 -7.98,5.83 -22.26,3.16 -32.14,3.16 -11.29,-0.01 -22.58,-0.02 -34.25,0.05l0.38 14.27c15.87,0.35 32.05,0.07 47.95,0.04 12.3,-0.03 30.53,2.31 33.28,-13.75 2.42,-14.09 0.87,-30.01 -16.15,-30.78 -14.22,-0.64 -34.22,1.55 -47.51,-0.52z"/>
  <path class="fil0" d="M15.33 651.93c0.14,-5.76 -1.61,-13.45 5.44,-15.35l60.06 -0.39 -0.67 -13.99c-80.89,0.54 -79.9,-7.87 -79.99,37.78 -0.04,19.31 -3.31,36.99 22.07,36.94 19.34,-0.04 38.72,0.15 58.4,-0l-0.38 -14.41c-13.64,-0.01 -27.28,-0.01 -40.92,-0.01 -18.74,-0 -24.46,4.61 -23.89,-16.07 12.16,-1.15 49.81,1.43 57.46,-1.06l-0.16 -12.96 -57.41 -0.48z"/>
  <path class="fil0" d="M884.89 682.62c-67.41,-3.98 -65.88,11.58 -66.19,-23.65 -0.21,-24.19 -1.1,-22.74 22.41,-22.75 13.66,-0 31.03,0.89 44.25,-0.22l-0.58 -13.66c-19.15,-0.88 -40.48,-0.33 -59.81,-0.17 -24.19,0.19 -21.42,19.57 -21.32,37.81 0.11,19.09 -2.72,36.97 22.36,36.98 18.9,0.01 40.32,0.86 59.18,-0.18l-0.31 -14.16z"/>
  <path class="fil2" d="M947.98 666.14l51.01 -0.17c3.27,1.51 1.5,26.27 1.17,30.53l14.65 -0.05 -0.12 -73.9 -14.36 0.19 -0.26 29.62 -52.83 0.24c-1.77,-4.88 -1.02,-23.91 -0.87,-29.98l-14.07 -0.05 0.02 73.97 14.04 -0.11 0.03 -23.39c0.01,-4.12 -0.84,-4.91 1.6,-6.91z"/>
  <path class="fil0" d="M123.23 622.2c-1.52,6.51 -0.59,29.61 -0.56,37.79 0.16,36 1,36.82 37.37,36.9 8.9,0.02 28.92,1.04 36.64,-0.36l-0.09 -13.71c-10.28,-1.61 -51.9,3.54 -56.86,-3.53 -4.38,-6.25 0.02,-46.07 -2.31,-57.01l-14.2 -0.08z"/>
  <polygon class="fil3" points="2.35,761.3 180.76,761.01 180.45,757.17 2.07,757.57 "/>
  <polygon class="fil3" points="841.49,761.3 1014.45,760.82 1014.32,757.17 841.51,757.24 "/>
  <path class="fil4" d="M433.69 752.65c4.84,4.23 5.88,12.54 11.06,16.45 6.15,-2.39 6.84,-12.38 11.73,-16.54l0.61 20.7 3.78 -0.07 -0.34 -29.34c-5.72,-0.05 -5.82,3.88 -8.73,8.72 -2.13,3.55 -4.54,7.2 -6.01,11.01 -6.78,-5.48 -7.99,-18.85 -15.21,-19.78 -0.96,1.47 -0.79,-1.03 -1.44,3.62l0.65 25.9 3.59 -0.24 0.3 -20.44z"/>
  <path class="fil4" d="M782.91 747.55c9.24,-0.62 18.5,-0.87 18.55,11.03 0.05,11.8 -9.58,11.08 -18.7,10.83l0.15 -21.86zm-4.65 25.73c11.95,0.06 27.41,1.76 27.61,-14.71 0.2,-16.5 -15.88,-14.77 -27.49,-14.72l-0.11 29.43z"/>
  <path class="fil5" d="M390.95 747.63l17.12 -0.55 -0.18 -3.1 -21.38 -0.08 0.22 29.31c4.54,0.21 18.18,0.88 21.61,-0.55l0.05 -3.08 -17.57 -0.31 0.03 -8.78 15.13 -0.49 -0.06 -3.14 -15.08 -0.52 0.11 -8.71z"/>
  <path class="fil5" d="M566.98 757.95c-4.79,2.92 -8.44,2.25 -13.94,2.08l0.12 -12.66c9.76,0 17.84,-1.82 13.82,10.58zm-13.57 5.77c8.37,-0.06 22.79,0.49 19.05,-13.03 -2.47,-8.94 -16.45,-7.21 -23.66,-6.65l0.19 29.11 4.06 -0.02 0.36 -9.41z"/>
  <path class="fil5" d="M221.87 751.53c1.39,-3.51 3.36,-4.53 7.58,-4.47 5.53,0.09 5.46,3.05 9.08,0.44 -1.32,-4.61 -8.44,-4.58 -12.84,-3.82 -4.81,0.83 -8.29,3.69 -8.09,8.8 0.43,11.34 17.56,4.25 18.42,13.8 -1.86,3.73 -5.37,3.99 -9.61,3.45 -5.07,-0.65 -4.87,-3.3 -9.12,-1.28 2.28,7.5 20.53,7.28 22.82,-1.22 3.51,-13.02 -14.62,-6.92 -18.24,-15.72z"/>
  <path class="fil4" d="M486.38 752.54c1.11,-9.18 10.72,-4.4 13.86,-4.06 2.44,0.26 0.68,0.14 2.37,-0.5 0.37,-2.97 -1.1,-3.41 -4.93,-4.21 -10.69,-2.24 -18.53,3.71 -15.55,11.03 7.45,9.44 17.5,2.07 18.22,11.83 -2.62,3.44 -5.9,3.67 -10.33,3.01 -6.06,-0.91 -5.73,-4.55 -8.6,0.01 3,4.66 25.26,9.2 22.71,-8.42 -6.72,-5.07 -14.83,-3.93 -17.73,-8.68z"/>
  <path class="fil4" d="M306.32 752.54c0.56,-3.54 0.77,-2.71 3.1,-5.15 5.12,-2.46 8.27,3.14 13.79,0.51 -2.92,-8.29 -21.41,-5.21 -21.22,4.63 0.23,12.02 18.93,2.89 18.01,15.3 -10.57,5.54 -12.05,-1.33 -17.62,0.38 -1.53,7.39 19.98,7.2 22.05,-1.16 2.98,-12.03 -14.36,-7.81 -18.11,-14.51z"/>
  <path class="fil5" d="M588.21 744.14l12.78 29.08 4.45 -0.04 12.17 -29.35c-6.92,0.16 -9.09,11.72 -14.49,23.63l-10.41 -23.46 -4.49 0.13z"/>
  <path class="fil5" d="M257.83 743.8c1.53,4.56 4.93,8.89 7.56,13.02 5.74,9.01 2.99,6.31 3.9,16.35l4.1 -0.02 0.04 -9.54c1.77,-6.95 9.69,-12.51 11.09,-19.68 -6.55,0.14 -9.7,9.36 -13.29,14.47l-9.11 -14.43 -4.29 -0.17z"/>
  <path class="fil4" d="M738.4 743.69c-4.85,0.14 -3.42,-0.6 -4.06,2.81 2.9,1.57 6.22,0.79 10.11,0.98l0.32 25.78 3.93 0.02 0.1 -25.84c2.01,-0.08 4.05,0.1 5.88,0.02 5.47,-0.22 2.75,0.6 4.28,-2 -2.13,-2.98 -4.91,-1.62 -13.41,-1.65 -2.27,-0.01 -4.97,-0.19 -7.14,-0.13z"/>
  <polygon class="fil6" points="366.9,747.06 366.78,743.85 342.6,744.04 342.58,747.35 352.36,747.44 352.72,773.25 356.71,773 356.96,747.49 "/>
  <path class="fil7" d="M643.94 743.89c-10.6,0.09 -9.24,-1.23 -11.3,1.57 1.52,1.13 -2.6,1.65 4.17,1.96 2.17,0.1 3.56,-0.1 5.94,0.14l0.46 25.7 3.85 -0.03 0.14 -25.63 10.26 -0.66 -0.12 -2.78c-4.35,-0.72 -8.95,-0.3 -13.39,-0.27z"/>
  <polygon class="fil8" points="699.61,773.28 719.71,772.91 719.79,769.67 703.31,769.44 702.91,743.87 699.18,743.84 "/>
 </g>
</svg>
